<?xml version="1.0" standalone="yes"?>
<svg xmlns="http://www.w3.org/2000/svg" width="256" height="256">
<path style="fill:#dfffff; stroke:none;" d="M0 0L0 109C2.7909 109.057 6.28726 109.984 8.98534 109.227C13.344 108.004 16.5945 102.518 19 99C14.4689 97.8552 9.68432 98.9871 5 99C5.32205 93.1173 7.80136 89.7215 13 87C12.5279 85.5838 12.1863 85.1863 11 84C19.3881 83.7019 26.3428 84.5416 34 88C31.8708 90.9357 27.6786 93.1177 26.1219 96.2593C25.1777 98.1649 25.9022 100.137 26.5494 101.999C29.2621 109.805 33.5748 109 41 109L41 112L37 112C38.6989 121.151 36.9243 129.897 37.375 139C38.8286 168.36 37 197.634 37 227L63 227L63 149C63 136.256 65.3122 121.073 61 109L67 109C66.9059 106.795 66.6438 105.106 66 103L61 104C61.6808 99.4344 63.839 96.9201 68 95C68.0816 101.888 70.9426 105.022 78 103L72 96C75.7654 95.9871 78.6295 95.7538 82 94C81.0143 95.4785 81 95.2032 81 97L88 99L88 101L82 102L82 104C86.0855 103.997 89.327 103.911 93 102C92.1753 99.5455 91.1709 97.3123 90 95L96 98C97.1034 96.5434 97.5434 96.1034 99 95L97 98C98.006 99.731 98.5465 101.053 99 103C95.0892 103.652 94.3002 105.136 94 109L104 109L104 112L100 112C101.699 121.151 99.9243 129.897 100.375 139C101.829 168.36 100 197.634 100 227L120 227L120 145C127.684 145 133.995 144.495 138 137L125 138C125.945 131.933 130.449 129.603 136 128C134.494 127.317 133.685 127.174 132 127C132.948 123.95 134.003 123.088 137 122C136.769 129.077 148.344 127.892 154 130C151.132 132.315 148.477 133.787 145 135C146.921 144.673 152.339 145 161 145L161 147L157 147C158.469 153.169 157.314 158.807 157.455 165C157.928 185.73 157.014 206.314 157 227L176 227L176 145L183 145C182.906 142.795 182.644 141.106 182 139L177 140C177.681 135.434 179.839 132.92 184 131C184.082 137.888 186.943 141.022 194 139L188 132C191.765 131.987 194.629 131.754 198 130C197.014 131.479 197 131.203 197 133L204 135L204 137L198 138L198 140C202.086 139.997 205.327 139.911 209 138C208.175 135.545 207.171 133.312 206 131L212 134C213.103 132.543 213.543 132.103 215 131L213 134C214.006 135.731 214.546 137.053 215 139C211.089 139.652 210.3 141.136 210 145L217 145L217 147L213 147C214.469 153.169 213.314 158.807 213.455 165C213.928 185.73 213.014 206.314 213 227L256 227L256 0L0 0z"/>
<path style="fill:#010101; stroke:none;" d="M11 84C12.6593 84.4065 13.2418 84.3086 15 84C13.1908 83.4257 12.9312 83.5347 11 84z"/>
<path style="fill:#373737; stroke:none;" d="M13 87C7.01635 89.0527 5.14732 92.9055 5 99C10.3806 98.9964 15.6383 98.4331 21 99C17.8886 102.139 15.0418 105.063 13 109C14.4162 108.528 14.8137 108.186 16 107L15 110C19.4224 109.997 23.6231 109.553 28 109L24 95C28.5873 93.8564 31.258 91.3735 33 87C28.1066 84.6894 24.3955 83.9751 19 84.2778C15.9518 84.4488 13.4234 83.6816 13 87z"/>
<path style="fill:#c3c3c3; stroke:none;" d="M17 86C19.6312 89.757 24.631 90.9848 29 92L30 87C25.6408 86.1878 21.4251 85.5062 17 86M7 98L21 95C19.494 94.317 18.6852 94.1741 17 94C15.4781 84.4635 5.62625 90.5477 7 98M33 88C32.0427 89.5167 31.6128 90.3385 31 92C32.63 90.4852 33.1631 90.1447 33 88z"/>
<path style="fill:#010101; stroke:none;" d="M21 91L19 92C20.482 92.7912 21.7964 92.8698 21 91z"/>
<path style="fill:#c3c3c3; stroke:none;" d="M30 92L31 93L30 92M27 93C28.2483 93.6848 28.5485 93.7488 30 94C28.7516 93.3152 28.4516 93.2512 27 93z"/>
<path style="fill:#212121; stroke:none;" d="M80 94C77.4401 95.9418 75.1922 95.965 72 96C73.5759 98.7632 75.7269 100.761 78 103C73.9273 103.874 70.9579 103.045 67 102C67.7224 99.5819 67.9481 97.5283 68 95C63.2651 96.3419 61.3582 99.1698 61 104C62.8782 103.824 64.1994 103.562 66 103L67 109L61 109L61 112L104 112L104 109L94 109C94.568 105.418 95.5083 104.057 99 103C98.6933 100.877 98.6179 100.314 97 99L99 95C96.8764 95.8993 96.8993 95.8764 96 98L90 95L93 102C89.2202 103.448 86.058 103.986 82 104L82 102C84.2049 101.906 85.8941 101.644 88 101L88 99C85.6454 98.1324 83.4691 97.4264 81 97L82 94L80 94z"/>
<path style="fill:#c3c3c3; stroke:none;" d="M24.6667 95.3333C24.2222 95.7778 25.2778 95.7222 25.3333 95.6667C25.7778 95.2222 24.7223 95.2777 24.6667 95.3333z"/>
<path style="fill:#212121; stroke:none;" d="M60 96L60 98L62 98L62 96L60 96z"/>
<path style="fill:#c3c3c3; stroke:none;" d="M65 96C65.0273 98.3786 65.06 98.6832 67 100L67 96L65 96M24 97L25 98L24 97M92 97C92.5451 98.6352 92.3648 98.4549 94 99C93.455 97.3649 93.6352 97.5451 92 97M76 98L76 100L78 100L78 98L76 98M79 98C80.858 100.572 81.9349 100.728 85 100C82.9584 98.584 81.489 98.2549 79 98M14 106C16.8799 103.96 18.9602 101.88 21 99C17.4985 100.649 15.6493 102.498 14 106M24 99C20.7097 101.373 17.8522 103.352 16 107C18.8863 105.201 24.0968 102.7 24 99M62 100L62 103C63.7968 103 63.5215 102.986 65 102C63.7772 100.805 63.58 100.684 62 100M95 102C97.0924 101.594 97.0198 101.783 98 100C96.42 100.684 96.2228 100.805 95 102M67 101L68 102L67 101z"/>
<path style="fill:#212121; stroke:none;" d="M26 102L27 108C27.9942 105.425 27.6541 104.177 26 102z"/>
<path style="fill:#c3c3c3; stroke:none;" d="M68 105L68 108L93 108L93 105L68 105M13 106C12.0427 107.517 11.6128 108.339 11 110C13.6927 109.628 14.7383 109.422 16 107C14.5838 107.472 14.1863 107.814 13 109C13.4001 107.35 13.4794 107.498 13 106z"/>
<path style="fill:#212121; stroke:none;" d="M0 109L0 112L41 112L41 109L0 109z"/>
<path style="fill:#373737; stroke:none;" d="M0 112L0 237C8.96324 237 22.0074 234.555 30 239C36.4228 235.572 44.0245 237.166 51 237.83C58.8934 238.581 67.0733 238 75 238L75 242C75.683 240.494 75.8259 239.685 76 238L180 238L180 242C180.683 240.494 180.826 239.685 181 238C188.625 238 196.392 238.431 204 237.91C211.461 237.4 218.588 236.235 226 238C225.356 240.106 225.094 241.795 225 244C226.222 241.717 226.652 239.572 227 237L256 237L256 227L223 227C226.87 228.67 230.589 228.06 233 232C236.639 232.331 239.047 232.806 241 236L197 237L15 236C16.9529 232.806 19.3605 232.331 23 232C25.9271 227.198 31.8072 227.044 37 227C37 198.084 39.4831 168.939 37.6651 140C37.2727 133.754 38.0324 127.288 37.9992 121C37.9862 118.538 38.428 114.784 36.2577 113.028C33.8598 111.088 28.8648 112 26 112L0 112M63 112L63 195L63 216C62.9997 220.001 63.4771 223.73 61 227C64.9069 228.639 68.8701 227.445 73 227.594C83.9982 227.992 94.9847 228 106 228C103.948 227.126 102.253 227.047 100 227C100 198.084 102.483 168.939 100.665 140C100.273 133.754 101.032 127.288 100.999 121C100.986 118.538 101.428 114.784 99.2577 113.028C96.8598 111.088 91.8648 112 89 112L63 112z"/>
<path style="fill:#c7ebf3; stroke:none;" d="M33 116L33 120C34.7811 118.768 35.9404 117.858 37 116L33 116M96 116L96 120C97.7811 118.768 98.9404 117.858 100 116L96 116z"/>
<path style="fill:#5b010f; stroke:none;" d="M5 117L5 122L25 122L25 117L5 117z"/>
<path style="fill:#b5e71d; stroke:none;" d="M68 117L68 122L88 122L88 117L68 117z"/>
<path style="fill:#ffffff; stroke:none;" d="M34 118C33.6767 120.032 33.6599 120.982 34 123C35.8399 121.283 36.3486 120.434 37 118L34 118M97 118C96.6767 120.032 96.6599 120.982 97 123C98.8398 121.283 99.3486 120.434 100 118L97 118z"/>
<path style="fill:#c7ebf3; stroke:none;" d="M36 121C34.6468 121.712 34.455 121.815 33 122L33 134C34.8874 130.197 37.5613 125.135 36 121M99 121C97.6468 121.712 97.455 121.815 96 122L96 134C97.8874 130.197 100.561 125.135 99 121z"/>
<path style="fill:#736317; stroke:none;" d="M5 122C4.42798 124.377 4.10952 126.558 4 129L8 129L8 122L5 122z"/>
<path style="fill:#dfffff; stroke:none;" d="M8 122L8 129L22 129L22 122L8 122z"/>
<path style="fill:#736317; stroke:none;" d="M22 122L22 129L26 129C25.8905 126.558 25.572 124.377 25 122L22 122M68 122C67.428 124.377 67.1095 126.558 67 129L71 129L71 122L68 122z"/>
<path style="fill:#dfffff; stroke:none;" d="M71 122L71 129L85 129L85 122L71 122z"/>
<path style="fill:#736317; stroke:none;" d="M85 122L85 129L89 129C88.8905 126.558 88.572 124.377 88 122L85 122z"/>
<path style="fill:#373737; stroke:none;" d="M132 123C133.659 123.406 134.242 123.309 136 123C134.519 124.598 133.939 125.108 132 126C133.506 126.683 134.315 126.826 136 127C130.404 129.652 125.52 131.16 125 138C130.022 137.997 135.021 137.289 140 138C140.032 139.734 140.001 139.507 141 141L137 142L138 140C136.049 141.26 135.16 142.019 134 144L148 145C146.824 141.869 145.689 138.886 144 136C146.001 134.785 146.785 134.001 148 132C144.39 131.621 141.881 130.166 139 128C142.735 128.031 146.305 128.533 150 129L149 133C151.121 131.919 151.919 131.121 153 129C147.405 127.428 137.061 129.163 137 122L132 123z"/>
<path style="fill:#010101; stroke:none;" d="M132 126C134.209 125.316 134.703 124.92 136 123C133.868 123.776 133.229 124.13 132 126z"/>
<path style="fill:#ffffff; stroke:none;" d="M36 126C34.6707 128.75 34.1535 130.95 34 134L37 134C36.9928 131.165 37.0977 128.613 36 126M99 126C97.6707 128.75 97.1535 130.95 97 134L100 134C99.9928 131.165 100.098 128.613 99 126z"/>
<path style="fill:#c3c3c3; stroke:none;" d="M136 128C131.923 130.332 128.174 131.648 126 136L127 137C131.732 136.024 136.143 135.04 141 135C139.494 134.317 138.685 134.174 137 134C137.374 131.391 137.393 130.213 136 128M139 128C141.624 130.786 144.177 131.893 148 132C147.613 134.09 147.616 133.711 150 134L150 129C146.3 128.313 142.763 128.01 139 128z"/>
<path style="fill:#f36167; stroke:none;" d="M4 129C4.50084 131.686 4.88257 134.27 5 137L25 137C25.1174 134.27 25.4992 131.686 26 129L4 129z"/>
<path style="fill:#b5e71d; stroke:none;" d="M67 129C67.5008 131.686 67.8826 134.27 68 137L88 137C88.1174 134.27 88.4992 131.686 89 129L67 129z"/>
<path style="fill:#5b010f; stroke:none;" d="M6 130L6 136L10 136L10 130L6 130M12 130L12 136L14 136L14 130L12 130M16 130L16 136L18 136L18 130L16 130M20 130L20 136L24 136L24 130L20 130M69 130L69 136L73 136L73 130L69 130M75 130L75 136L77 136L77 130L75 130M79 130L79 136L81 136L81 130L79 130M83 130L83 136L87 136L87 130L83 130z"/>
<path style="fill:#c3c3c3; stroke:none;" d="M153 130L154 131L153 130z"/>
<path style="fill:#212121; stroke:none;" d="M196 130C193.44 131.942 191.192 131.965 188 132C189.576 134.763 191.727 136.761 194 139C189.927 139.874 186.958 139.045 183 138C183.722 135.582 183.948 133.528 184 131C179.265 132.342 177.358 135.17 177 140C178.878 139.824 180.199 139.562 182 139L183 145L176 145L176 147L217 147L217 145L210 145C210.568 141.418 211.508 140.057 215 139C214.693 136.877 214.618 136.314 213 135L215 131C212.876 131.899 212.899 131.876 212 134L206 131L209 138C205.22 139.448 202.058 139.986 198 140L198 138C200.205 137.906 201.894 137.644 204 137L204 135C201.645 134.132 199.469 133.426 197 133L198 130L196 130z"/>
<path style="fill:#c3c3c3; stroke:none;" d="M151 131L151 133C152.635 132.455 152.455 132.635 153 131L151 131z"/>
<path style="fill:#010101; stroke:none;" d="M139 132L140 133L139 132z"/>
<path style="fill:#212121; stroke:none;" d="M176 132L176 134L178 134L178 132L176 132z"/>
<path style="fill:#c3c3c3; stroke:none;" d="M181 132C181.027 134.379 181.06 134.683 183 136L183 132L181 132M208 133C208.545 134.635 208.365 134.455 210 135C209.455 133.365 209.635 133.545 208 133M192 134L192 136L194 136L194 134L192 134M195 134C196.858 136.572 197.935 136.728 201 136C198.958 134.584 197.489 134.255 195 134M144 136L145 137L144 136M178 136L178 139C179.797 139 179.522 138.986 181 138C179.777 136.805 179.58 136.684 178 136M211 138C213.092 137.594 213.02 137.783 214 136C212.42 136.684 212.223 136.805 211 138M183 137L184 138L183 137M138 138L137 142L141 141C139.636 139.181 139.508 139.969 140 138L138 138M141 139C142.659 139.406 143.242 139.309 145 139C143.191 138.426 142.931 138.535 141 139M134 142C135.58 141.316 135.777 141.195 137 140C135.42 140.684 135.223 140.805 134 142z"/>
<path style="fill:#212121; stroke:none;" d="M146 140L147 144C147.751 141.954 147.656 141.404 146 140z"/>
<path style="fill:#c3c3c3; stroke:none;" d="M184 141L184 145L209 145L209 141L184 141z"/>
<path style="fill:#c7ebf3; stroke:none;" d="M33 142L33 146C34.7812 144.768 35.9404 143.858 37 142L33 142M96 142L96 146C97.7811 144.768 98.9404 143.858 100 142L96 142z"/>
<path style="fill:#c3c3c3; stroke:none;" d="M133 142C131.814 143.186 131.472 143.584 131 145L136 145L136 143C134.263 143.062 134.36 143.02 133 142M136 142L137 143L136 142z"/>
<path style="fill:#ffffff; stroke:none;" d="M34 144C33.6767 146.032 33.6599 146.982 34 149C35.8398 147.283 36.3486 146.434 37 144L34 144M97 144C96.6767 146.032 96.6599 146.982 97 149C98.8399 147.283 99.3486 146.434 100 144L97 144z"/>
<path style="fill:#212121; stroke:none;" d="M120 145L120 147L161 147L161 145L120 145z"/>
<path style="fill:#5b010f; stroke:none;" d="M6 145L6 150L26 150L26 145L6 145z"/>
<path style="fill:#b5e71d; stroke:none;" d="M69 145L69 150L89 150L89 145L69 145z"/>
<path style="fill:#c7ebf3; stroke:none;" d="M36 147C34.6468 147.712 34.455 147.815 33 148L33 160C34.8874 156.197 37.5613 151.135 36 147M99 147C97.6468 147.712 97.455 147.815 96 148L96 160C97.8874 156.197 100.561 151.135 99 147z"/>
<path style="fill:#373737; stroke:none;" d="M120 147L120 227L113 227C116.699 228.552 121.017 228 125 228C132.668 228 140.353 227.571 148 227.571C171.71 227.571 195.377 227.984 219 228C216.948 227.126 215.253 227.047 213 227C213.055 207.044 214.796 187.032 213.804 167C213.585 162.582 216.292 151.113 212.397 148.028C209.948 146.088 204.91 147 202 147L176 147L176 227L157 227C157.055 207.044 158.796 187.032 157.804 167C157.585 162.582 160.292 151.113 156.397 148.028C153.948 146.088 148.91 147 146 147L120 147z"/>
<path style="fill:#c7ebf3; stroke:none;" d="M153 152C154.991 151.151 155.778 150.733 157 149C154.261 149.211 153.578 149.303 153 152M209 152C210.991 151.151 211.778 150.733 213 149C210.261 149.211 209.578 149.303 209 152z"/>
<path style="fill:#736317; stroke:none;" d="M6 150C5.42799 152.377 5.10952 154.558 5 157L9 157L9 150L6 150z"/>
<path style="fill:#dfffff; stroke:none;" d="M9 150L9 157L23 157L23 150L9 150z"/>
<path style="fill:#736317; stroke:none;" d="M23 150L23 157L27 157C26.8905 154.558 26.572 152.377 26 150L23 150M69 150C68.428 152.377 68.1095 154.558 68 157L72 157L72 150L69 150z"/>
<path style="fill:#dfffff; stroke:none;" d="M72 150L72 157L86 157L86 150L72 150z"/>
<path style="fill:#736317; stroke:none;" d="M86 150L86 157L90 157C89.8905 154.558 89.572 152.377 89 150L86 150z"/>
<path style="fill:#156d31; stroke:none;" d="M125 150L125 154L145 154L145 150L125 150z"/>
<path style="fill:#ffc90f; stroke:none;" d="M181 150L181 154L201 154L201 150L181 150z"/>
<path style="fill:#ffffff; stroke:none;" d="M153 154C155.297 153.326 155.774 153.035 157 151C154.703 151.674 154.226 151.965 153 154M209 154C211.297 153.326 211.774 153.035 213 151C210.703 151.674 210.226 151.965 209 154M36 152C34.6707 154.75 34.1535 156.95 34 160L37 160C36.9928 157.165 37.0977 154.613 36 152M99 152C97.6707 154.75 97.1535 156.95 97 160L100 160C99.9928 157.165 100.098 154.613 99 152z"/>
<path style="fill:#c7ebf3; stroke:none;" d="M156 153C154.521 153.986 154.797 154 153 154L153 162C154.903 159.239 156.785 156.345 156 153M212 153C210.521 153.986 210.797 154 209 154L209 162C210.903 159.239 212.785 156.345 212 153z"/>
<path style="fill:#736317; stroke:none;" d="M124 159L128 159L128 154C125.036 154.968 124.497 155.934 124 159z"/>
<path style="fill:#dfffff; stroke:none;" d="M128 154L128 159L142 159L142 154L128 154z"/>
<path style="fill:#736317; stroke:none;" d="M142 154L142 159L146 159C145.503 155.934 144.964 154.968 142 154M180 159L184 159L184 154C181.036 154.968 180.497 155.934 180 159z"/>
<path style="fill:#dfffff; stroke:none;" d="M184 154L184 159L198 159L198 154L184 154z"/>
<path style="fill:#736317; stroke:none;" d="M198 154L198 159L202 159C201.503 155.934 200.964 154.968 198 154z"/>
<path style="fill:#ffffff; stroke:none;" d="M156 156C154.957 158.095 154.397 159.699 154 162C157.331 161.286 157.591 158.762 156 156M212 156C210.957 158.095 210.397 159.699 210 162C213.331 161.286 213.591 158.762 212 156z"/>
<path style="fill:#f36167; stroke:none;" d="M5 157C5.50083 159.686 5.88257 162.27 6 165L26 165C26.1174 162.27 26.4992 159.686 27 157L5 157z"/>
<path style="fill:#b5e71d; stroke:none;" d="M68 157C68.5008 159.686 68.8826 162.27 69 165L89 165C89.1174 162.27 89.4992 159.686 90 157L68 157z"/>
<path style="fill:#5b010f; stroke:none;" d="M7 158L7 164L11 164L11 158L7 158M13 158L13 164L15 164L15 158L13 158M17 158L17 164L19 164L19 158L17 158M21 158L21 164L25 164L25 158L21 158M70 158L70 164L74 164L74 158L70 158M76 158L76 164L78 164L78 158L76 158M80 158L80 164L82 164L82 158L80 158M84 158L84 164L88 164L88 158L84 158z"/>
<path style="fill:#156d31; stroke:none;" d="M124 159L125 164L145 164L146 159C144.382 160.314 144.307 160.877 144 163L140 163L140 159L138 159L138 163L136 163L136 159L134 159L134 163L132 163L132 159L130 159L130 163L126 163C125.693 160.877 125.618 160.314 124 159z"/>
<path style="fill:#0d3b1b; stroke:none;" d="M126 159L126 163L130 163L130 159L126 159M132 159L132 163L134 163L134 159L132 159M136 159L136 163L138 163L138 159L136 159M140 159L140 163L144 163L144 159L140 159z"/>
<path style="fill:#ffc90f; stroke:none;" d="M180 159L181 164L201 164L202 159C200.382 160.314 200.307 160.877 200 163L196 163L196 159L194 159L194 163L192 163L192 159L190 159L190 163L188 163L188 159L186 159L186 163L182 163C181.693 160.877 181.618 160.314 180 159z"/>
<path style="fill:#0d3b1b; stroke:none;" d="M182 159L182 163L186 163L186 159L182 159M188 159L188 163L190 163L190 159L188 159M192 159L192 163L194 163L194 159L192 159M196 159L196 163L200 163L200 159L196 159z"/>
<path style="fill:#c7ebf3; stroke:none;" d="M33 168L33 172C34.7811 170.768 35.9404 169.858 37 168L33 168M96 168L96 172C97.7811 170.768 98.9404 169.858 100 168L96 168M153 170L157 169C154.954 168.249 154.404 168.344 153 170M209 170L213 169C210.954 168.249 210.404 168.344 209 170z"/>
<path style="fill:#ffffff; stroke:none;" d="M154 173C155.608 171.55 156.064 170.949 157 169C154.352 169.866 153.917 170.23 154 173M210 173C211.608 171.55 212.064 170.949 213 169C210.352 169.866 209.917 170.23 210 173z"/>
<path style="fill:#5b010f; stroke:none;" d="M6 170L6 175L26 175L26 170L6 170z"/>
<path style="fill:#ffffff; stroke:none;" d="M34 170C33.6767 172.032 33.6599 172.982 34 175C35.8398 173.283 36.3486 172.434 37 170L34 170z"/>
<path style="fill:#b5e71d; stroke:none;" d="M69 170L69 175L89 175L89 170L69 170z"/>
<path style="fill:#ffffff; stroke:none;" d="M97 170C96.6767 172.032 96.6599 172.982 97 175C98.8398 173.283 99.3486 172.434 100 170L97 170z"/>
<path style="fill:#156d31; stroke:none;" d="M126 170L126 173L146 173L146 170L126 170z"/>
<path style="fill:#ffc90f; stroke:none;" d="M182 170L182 173L202 173L202 170L182 170z"/>
<path style="fill:#c7ebf3; stroke:none;" d="M156 171C154.647 171.712 154.455 171.815 153 172L153 180C154.968 177.229 157.174 174.387 156 171M212 171C210.647 171.712 210.455 171.815 209 172L209 180C210.968 177.229 213.174 174.387 212 171M36 173C34.6468 173.712 34.455 173.815 33 174L33 186C34.8874 182.197 37.5613 177.135 36 173M99 173C97.6468 173.712 97.455 173.815 96 174L96 186C97.8874 182.197 100.561 177.135 99 173z"/>
<path style="fill:#736317; stroke:none;" d="M126 173L125 178L129 178L129 173L126 173z"/>
<path style="fill:#dfffff; stroke:none;" d="M129 173L129 178L143 178L143 173L129 173z"/>
<path style="fill:#736317; stroke:none;" d="M143 173L143 178L147 178L146 173L143 173M182 173L181 178L185 178L185 173L182 173z"/>
<path style="fill:#dfffff; stroke:none;" d="M185 173L185 178L199 178L199 173L185 173z"/>
<path style="fill:#736317; stroke:none;" d="M199 173L199 178L203 178L202 173L199 173M6 175C5.42799 177.377 5.10952 179.558 5 182L9 182L9 175L6 175z"/>
<path style="fill:#dfffff; stroke:none;" d="M9 175L9 182L23 182L23 175L9 175z"/>
<path style="fill:#736317; stroke:none;" d="M23 175L23 182L27 182C26.8905 179.558 26.572 177.377 26 175L23 175M69 175C68.428 177.377 68.1095 179.558 68 182L72 182L72 175L69 175z"/>
<path style="fill:#dfffff; stroke:none;" d="M72 175L72 182L86 182L86 175L72 175z"/>
<path style="fill:#736317; stroke:none;" d="M86 175L86 182L90 182C89.8905 179.558 89.572 177.377 89 175L86 175z"/>
<path style="fill:#ffffff; stroke:none;" d="M155 175L154 180C157.054 179.346 156.936 177.993 157 175L155 175M211 175L210 180C213.054 179.346 212.936 177.993 213 175L211 175M36 178C34.6707 180.75 34.1535 182.95 34 186L37 186C36.9928 183.165 37.0977 180.613 36 178M99 178C97.6707 180.75 97.1535 182.95 97 186L100 186C99.9928 183.165 100.098 180.613 99 178z"/>
<path style="fill:#156d31; stroke:none;" d="M125 178L126 184L146 184L147 178L125 178z"/>
<path style="fill:#ffc90f; stroke:none;" d="M181 178L182 184L202 184L203 178L181 178z"/>
<path style="fill:#0d3b1b; stroke:none;" d="M127 179L127 183L131 183L131 179L127 179M133 179L133 183L135 183L135 179L133 179M137 179L137 183L139 183L139 179L137 179M141 179L141 183L145 183L145 179L141 179M183 179L183 183L187 183L187 179L183 179M189 179L189 183L191 183L191 179L189 179M193 179L193 183L195 183L195 179L193 179M197 179L197 183L201 183L201 179L197 179z"/>
<path style="fill:#f36167; stroke:none;" d="M5 182C5.50083 184.686 5.88257 187.27 6 190L26 190C26.1174 187.27 26.4992 184.686 27 182L5 182z"/>
<path style="fill:#b5e71d; stroke:none;" d="M68 182C68.5008 184.686 68.8826 187.27 69 190L89 190C89.1174 187.27 89.4992 184.686 90 182L68 182z"/>
<path style="fill:#5b010f; stroke:none;" d="M7 183L7 189L11 189L11 183L7 183M13 183L13 189L15 189L15 183L13 183M17 183L17 189L19 189L19 183L17 183M21 183L21 189L25 189L25 183L21 183M70 183L70 189L74 189L74 183L70 183M76 183L76 189L78 189L78 183L76 183M80 183L80 189L82 189L82 183L80 183M84 183L84 189L88 189L88 183L84 183z"/>
<path style="fill:#c7ebf3; stroke:none;" d="M153 189L157 187C154.588 185.645 153.568 186.351 153 189M209 189L213 187C210.588 185.645 209.568 186.351 209 189z"/>
<path style="fill:#156d31; stroke:none;" d="M126 187L126 191L146 191L146 187L126 187z"/>
<path style="fill:#ffffff; stroke:none;" d="M154 187C153.782 188.686 153.776 189.316 154 191C155.608 189.55 156.064 188.949 157 187L154 187z"/>
<path style="fill:#ffc90f; stroke:none;" d="M182 187L182 191L202 191L202 187L182 187z"/>
<path style="fill:#ffffff; stroke:none;" d="M210 187C209.782 188.686 209.776 189.316 210 191C211.608 189.55 212.064 188.949 213 187L210 187z"/>
<path style="fill:#c7ebf3; stroke:none;" d="M156 189C154.647 189.712 154.455 189.815 153 190L153 198C154.968 195.229 157.174 192.387 156 189M212 189C210.647 189.712 210.455 189.815 209 190L209 198C210.968 195.229 213.174 192.387 212 189z"/>
<path style="fill:#736317; stroke:none;" d="M125 196L129 196L129 191C126.036 191.968 125.497 192.934 125 196z"/>
<path style="fill:#dfffff; stroke:none;" d="M129 191L129 196L143 196L143 191L129 191z"/>
<path style="fill:#736317; stroke:none;" d="M143 191L143 196L147 196C146.503 192.934 145.964 191.968 143 191M181 196L185 196L185 191C182.036 191.968 181.497 192.934 181 196z"/>
<path style="fill:#dfffff; stroke:none;" d="M185 191L185 196L199 196L199 191L185 191z"/>
<path style="fill:#736317; stroke:none;" d="M199 191L199 196L203 196C202.503 192.934 201.964 191.968 199 191z"/>
<path style="fill:#ffffff; stroke:none;" d="M155 193L154 198C157.054 197.346 156.936 195.993 157 193L155 193M211 193L210 198C213.054 197.346 212.936 195.993 213 193L211 193z"/>
<path style="fill:#c7ebf3; stroke:none;" d="M33 194L33 198C34.7811 196.768 35.9404 195.858 37 194L33 194M96 194L96 198C97.7812 196.768 98.9404 195.858 100 194L96 194z"/>
<path style="fill:#ffffff; stroke:none;" d="M34 196C33.6767 198.032 33.6599 198.982 34 201C35.8398 199.283 36.3486 198.434 37 196L34 196M97 196C96.6767 198.032 96.6599 198.982 97 201C98.8398 199.283 99.3486 198.434 100 196L97 196z"/>
<path style="fill:#156d31; stroke:none;" d="M125 196L126 201L146 201L147 196C145.382 197.314 145.307 197.877 145 200L141 200L141 196L139 196L139 200L137 200L137 196L135 196L135 200L133 200L133 196L131 196L131 200L127 200C126.693 197.877 126.618 197.314 125 196z"/>
<path style="fill:#0d3b1b; stroke:none;" d="M127 196L127 200L131 200L131 196L127 196M133 196L133 200L135 200L135 196L133 196M137 196L137 200L139 200L139 196L137 196M141 196L141 200L145 200L145 196L141 196z"/>
<path style="fill:#ffc90f; stroke:none;" d="M181 196L182 201L202 201L203 196C201.382 197.314 201.307 197.877 201 200L197 200L197 196L195 196L195 200L193 200L193 196L191 196L191 200L189 200L189 196L187 196L187 200L183 200C182.693 197.877 182.618 197.314 181 196z"/>
<path style="fill:#0d3b1b; stroke:none;" d="M183 196L183 200L187 200L187 196L183 196M189 196L189 200L191 200L191 196L189 196M193 196L193 200L195 200L195 196L193 196M197 196L197 200L201 200L201 196L197 196z"/>
<path style="fill:#5b010f; stroke:none;" d="M7 197L7 202L27 202L27 197L7 197z"/>
<path style="fill:#b5e71d; stroke:none;" d="M70 197L70 202L90 202L90 197L70 197z"/>
<path style="fill:#c7ebf3; stroke:none;" d="M36 199C34.6468 199.712 34.455 199.815 33 200L33 212C34.8874 208.197 37.5613 203.135 36 199M99 199C97.6468 199.712 97.455 199.815 96 200L96 212C97.8874 208.197 100.561 203.135 99 199z"/>
<path style="fill:#736317; stroke:none;" d="M7 202C6.42799 204.377 6.10952 206.558 6 209L10 209L10 202L7 202z"/>
<path style="fill:#dfffff; stroke:none;" d="M10 202L10 209L24 209L24 202L10 202z"/>
<path style="fill:#736317; stroke:none;" d="M24 202L24 209L28 209C27.8905 206.558 27.572 204.377 27 202L24 202M70 202C69.428 204.377 69.1095 206.558 69 209L73 209L73 202L70 202z"/>
<path style="fill:#dfffff; stroke:none;" d="M73 202L73 209L87 209L87 202L73 202z"/>
<path style="fill:#736317; stroke:none;" d="M87 202L87 209L91 209C90.8905 206.558 90.572 204.377 90 202L87 202z"/>
<path style="fill:#ffffff; stroke:none;" d="M36 204C34.6707 206.75 34.1535 208.95 34 212L37 212C36.9928 209.165 37.0977 206.613 36 204M99 204C97.6707 206.75 97.1535 208.95 97 212L100 212C99.9928 209.165 100.098 206.613 99 204z"/>
<path style="fill:#c7ebf3; stroke:none;" d="M153 207L157 205C154.588 203.645 153.568 204.351 153 207M209 207L213 205C210.588 203.645 209.568 204.351 209 207z"/>
<path style="fill:#ffffff; stroke:none;" d="M154 205C153.782 206.686 153.776 207.316 154 209C155.608 207.55 156.064 206.949 157 205L154 205M210 205C209.782 206.686 209.776 207.316 210 209C211.608 207.55 212.064 206.949 213 205L210 205z"/>
<path style="fill:#156d31; stroke:none;" d="M127 206L127 210L147 210L147 206L127 206z"/>
<path style="fill:#ffc90f; stroke:none;" d="M183 206L183 210L203 210L203 206L183 206z"/>
<path style="fill:#c7ebf3; stroke:none;" d="M156 207C154.647 207.712 154.455 207.815 153 208L153 217C154.919 213.914 157.145 210.606 156 207M212 207C210.647 207.712 210.455 207.815 209 208L209 217C210.919 213.914 213.145 210.606 212 207z"/>
<path style="fill:#f36167; stroke:none;" d="M6 209C6.50083 211.686 6.88257 214.27 7 217L27 217C27.1174 214.27 27.4992 211.686 28 209L6 209z"/>
<path style="fill:#b5e71d; stroke:none;" d="M69 209C69.5008 211.686 69.8826 214.27 70 217L90 217C90.1174 214.27 90.4992 211.686 91 209L69 209z"/>
<path style="fill:#5b010f; stroke:none;" d="M8 210L8 216L12 216L12 210L8 210M14 210L14 216L16 216L16 210L14 210M18 210L18 216L20 216L20 210L18 210M22 210L22 216L26 216L26 210L22 210M71 210L71 216L75 216L75 210L71 210M77 210L77 216L79 216L79 210L77 210M81 210L81 216L83 216L83 210L81 210M85 210L85 216L89 216L89 210L85 210z"/>
<path style="fill:#736317; stroke:none;" d="M126 214L130 214L130 210C127.374 210.839 126.839 211.374 126 214z"/>
<path style="fill:#dfffff; stroke:none;" d="M130 210L130 214L144 214L144 210L130 210z"/>
<path style="fill:#736317; stroke:none;" d="M144 210L144 214L148 214C147.161 211.374 146.626 210.839 144 210M182 214L186 214L186 210C183.374 210.839 182.839 211.374 182 214z"/>
<path style="fill:#dfffff; stroke:none;" d="M186 210L186 214L200 214L200 210L186 210z"/>
<path style="fill:#736317; stroke:none;" d="M200 210L200 214L204 214C203.161 211.374 202.626 210.839 200 210z"/>
<path style="fill:#ffffff; stroke:none;" d="M156 211C154.805 213.166 154.309 214.553 154 217L157 217C156.953 214.747 156.874 213.052 156 211M212 211C210.805 213.166 210.309 214.553 210 217L213 217C212.953 214.747 212.874 213.052 212 211z"/>
<path style="fill:#156d31; stroke:none;" d="M126 214L127 220L147 220L148 214L126 214z"/>
<path style="fill:#ffc90f; stroke:none;" d="M182 214L183 220L203 220L204 214L182 214z"/>
<path style="fill:#0d3b1b; stroke:none;" d="M128 215L128 219L132 219L132 215L128 215M134 215L134 219L136 219L136 215L134 215M138 215L138 219L140 219L140 215L138 215M142 215L142 219L146 219L146 215L142 215M184 215L184 219L188 219L188 215L184 215M190 215L190 219L192 219L192 215L190 215M194 215L194 219L196 219L196 215L194 215M198 215L198 219L202 219L202 215L198 215z"/>
<path style="fill:#656565; stroke:none;" d="M10 229L15 228C12.6996 227.084 11.6232 227.121 10 229z"/>
<path style="fill:#252525; stroke:none;" d="M23 232C19.83 232.173 17.8643 232.356 16 235C25.5941 235 35.4158 234.384 44.9853 235.054C48.789 235.32 52.1293 236.93 56.0039 236.995C117.686 238.039 179.391 236 241 236C239.864 232.118 236.696 232.118 233 232C231.7 227.557 226.141 227.578 222 227.319C210.506 226.601 198.639 228.375 187 227.616C171.244 226.588 154.726 227.891 139 228C129.046 228.069 118.84 226.805 109 227.079C84.9606 227.746 61.0356 228 37 228C38.5061 228.683 39.3148 228.826 41 229L41 233L32 233L34 227C29.7365 227.136 24.3459 227.395 23 232z"/>
<path style="fill:#7b7b7b; stroke:none;" d="M34 227L35 228L34 227z"/>
<path style="fill:#ffffff; stroke:none;" d="M35.6667 227.333C35.2222 227.778 36.2778 227.722 36.3333 227.667C36.7778 227.222 35.7222 227.278 35.6667 227.333z"/>
<path style="fill:#353535; stroke:none;" d="M37 227C39.3316 227.985 41.4567 227.981 44 228C41.6684 227.015 39.5433 227.019 37 227z"/>
<path style="fill:#616161; stroke:none;" d="M44 227C46.0521 227.874 47.7472 227.953 50 228C47.9479 227.126 46.2528 227.047 44 227M53 227C55.6127 228.098 58.1645 227.993 61 228C58.3873 226.902 55.8355 227.007 53 227z"/>
<path style="fill:#f7f7f7; stroke:none;" d="M183.667 227.333C183.222 227.778 184.278 227.722 184.333 227.667C184.778 227.222 183.722 227.278 183.667 227.333z"/>
<path style="fill:#a9a9a9; stroke:none;" d="M185 227L186 228L185 227z"/>
<path style="fill:#616161; stroke:none;" d="M192 227C194.052 227.874 195.747 227.953 198 228C195.948 227.126 194.253 227.047 192 227M201 227C203.89 228.213 206.874 227.998 210 228C207.11 226.787 204.126 227.002 201 227z"/>
<path style="fill:#676767; stroke:none;" d="M241 227C242.751 228.255 243.857 228.614 246 229C244.46 227.197 243.403 227.168 241 227z"/>
<path style="fill:#151527; stroke:none;" d="M32 229C34.8897 230.213 37.8741 229.998 41 230C37.9354 228.382 35.3746 228.343 32 229M215 229C217.89 230.213 220.874 229.998 224 230C221.11 228.787 218.126 229.002 215 229z"/>
<path style="fill:#b5ad0d; stroke:none;" d="M32 230C34.8897 231.213 37.8741 230.998 41 231C38.1103 229.787 35.1259 230.002 32 230M215 230C217.89 231.213 220.874 230.998 224 231C221.11 229.787 218.126 230.002 215 230z"/>
<path style="fill:#cdc309; stroke:none;" d="M32 231C34.8897 232.213 37.8741 231.998 41 232C38.1103 230.787 35.1259 231.002 32 231z"/>
<path style="fill:#635f1b; stroke:none;" d="M59 231C61.8897 232.213 64.8741 231.998 68 232C65.1103 230.787 62.1259 231.002 59 231M83 231C86.1633 232.327 89.5856 232 93 232C89.8367 230.673 86.4144 231 83 231M108 231C110.613 232.098 113.165 231.993 116 232C113.387 230.902 110.835 231.007 108 231M140 231C142.613 232.098 145.164 231.993 148 232C145.387 230.902 142.835 231.007 140 231M163 231C166.163 232.327 169.586 232 173 232C169.837 230.673 166.414 231 163 231M188 231C190.89 232.213 193.874 231.998 197 232C194.11 230.787 191.126 231.002 188 231z"/>
<path style="fill:#cdc309; stroke:none;" d="M215 231C217.89 232.213 220.874 231.998 224 232C221.11 230.787 218.126 231.002 215 231z"/>
<path style="fill:#131329; stroke:none;" d="M32 232C34.8897 233.213 37.8741 232.998 41 233C38.1103 231.787 35.1259 232.002 32 232z"/>
<path style="fill:#ffff01; stroke:none;" d="M59 232C61.8897 233.213 64.8741 232.998 68 233C65.1103 231.787 62.1259 232.002 59 232M83 232C86.1633 233.327 89.5856 233 93 233C89.8367 231.673 86.4144 232 83 232z"/>
<path style="fill:#918b13; stroke:none;" d="M93 232L94 233L93 232z"/>
<path style="fill:#9d9511; stroke:none;" d="M107 232L108 233L107 232z"/>
<path style="fill:#ffff01; stroke:none;" d="M108 232C110.613 233.098 113.165 232.993 116 233C113.387 231.902 110.835 232.007 108 232z"/>
<path style="fill:#9d9511; stroke:none;" d="M116 232L117 233L116 232M139 232L140 233L139 232z"/>
<path style="fill:#ffff01; stroke:none;" d="M140 232C142.613 233.098 145.164 232.993 148 233C145.387 231.902 142.835 232.007 140 232z"/>
<path style="fill:#9d9511; stroke:none;" d="M148 232L149 233L148 232z"/>
<path style="fill:#918b13; stroke:none;" d="M162 232L163 233L162 232z"/>
<path style="fill:#ffff01; stroke:none;" d="M163 232C166.163 233.327 169.586 233 173 233C169.837 231.673 166.414 232 163 232M188 232C190.89 233.213 193.874 232.998 197 233C194.11 231.787 191.126 232.002 188 232z"/>
<path style="fill:#131329; stroke:none;" d="M215 232C217.89 233.213 220.874 232.998 224 233C221.11 231.787 218.126 232.002 215 232z"/>
<path style="fill:#2d2d2d; stroke:none;" d="M15 233C15.9045 237.221 20.3458 236 24 236L50 236C39.3037 231.512 25.444 238.808 15 233z"/>
<path style="fill:#0b0d29; stroke:none;" d="M59 233C61.8897 234.213 64.8741 233.998 68 234C65.1103 232.787 62.1259 233.002 59 233M83 233C86.1633 234.327 89.5856 234 93 234C89.8367 232.673 86.4144 233 83 233M108 233C110.613 234.098 113.165 233.993 116 234C113.387 232.902 110.835 233.007 108 233M140 233C142.613 234.098 145.164 233.993 148 234C145.387 232.902 142.835 233.007 140 233M163 233C166.163 234.327 169.586 234 173 234C169.837 232.673 166.414 233 163 233M188 233C190.89 234.213 193.874 233.998 197 234C194.11 232.787 191.126 233.002 188 233z"/>
<path style="fill:#454545; stroke:none;" d="M0 237L0 256L13 256L13 245C14.0809 248.657 13.9996 252.199 14 256L38 256L36 252C38.118 253.218 38.8446 253.867 40 256L69 256L69 251C73.476 259.841 92.2907 256 101 256C101.503 252.824 102.255 251.669 105 250C103.133 252.086 102.434 253.246 102 256L154 256C153.573 253.355 153.179 252.539 151 251C154.037 251.786 154.508 252.918 155 256L177 255.999C181.559 255.975 185.123 256.048 186 251C186.562 252.801 186.824 254.122 187 256L216 256C217.155 253.867 217.882 253.218 220 252L218 256L242 256L242 245C243.081 248.657 243 252.199 243 256L256 256L256 237C251.921 237 245.848 235.741 243 239C238.531 235.87 232.281 237 227 237C225.994 241.633 224.837 244.736 220 246L221 252C219.51 249.22 219.089 247.152 219 244C223.342 243.276 223.906 240.997 225 237L182 238L183 242C180.965 240.774 180.674 240.297 180 238L147 238C147.562 240.863 147.476 243.123 147 246L150 249C146.788 246.26 147.622 241.36 144.552 239.179C142.248 237.543 138.659 238.004 136 238L119 238.001C116.601 238.013 113.521 237.707 111.448 239.179C109.147 240.813 109.86 243.65 108.843 245.942C107.986 247.873 106.607 248.765 105 250C106.299 248.383 107.39 247.328 109 246C107.931 243.121 107.212 241.597 109 239C105.301 237.448 100.983 238 97 238L76 238C75.3265 240.297 75.0347 240.774 73 242L74 238L31 237C32.0944 240.997 32.6578 243.276 37 244C36.9417 246.784 36.6479 249.291 36 252L36 246C31.2808 244.51 32.2101 239.989 28.4282 237.858C24.7089 235.762 18.1475 237 14 237L15 244C14.1196 241.674 13.5072 239.436 13 237L0 237z"/>
<path style="fill:#212121; stroke:none;" d="M13 237L14 244C15.0777 241.227 14.663 239.435 13 237z"/>
<path style="fill:#1d1d1d; stroke:none;" d="M242.333 237.667C242.278 237.722 242.222 238.778 242.667 238.333C242.722 238.278 242.778 237.222 242.333 237.667z"/>
<path style="fill:#292929; stroke:none;" d="M30 238C31.0883 242.135 31.388 245.199 36 246L35 252C36.9418 249.44 36.965 247.192 37 244C33.2651 242.87 32.7522 240.25 30 238z"/>
<path style="fill:#232323; stroke:none;" d="M74 238L73 242C74.6556 240.596 74.7511 240.046 74 238M109 246C106.882 247.218 106.155 247.867 105 250C110.183 247.384 109.553 243.056 111 238C106.719 239.719 107.055 242.243 109 246z"/>
<path style="fill:#1f1f1f; stroke:none;" d="M145 238C146.265 242.418 145.646 246.593 150 249C149.098 247.077 148.924 247.001 147 246C147.807 242.451 148.223 240.096 145 238M181 238C181.307 240.123 181.382 240.686 183 242C182.404 240.44 181.911 239.377 181 238z"/>
<path style="fill:#292929; stroke:none;" d="M224 238C223.432 241.582 222.492 242.943 219 244C219.021 246.85 219.19 249.271 220 252C220.507 249.92 220.237 248.162 220 246C224.612 245.199 224.912 242.135 226 238L224 238z"/>
<path style="fill:#212121; stroke:none;" d="M241 240L241 244C241.71 242.241 241.71 241.759 241 240z"/>
<path style="fill:#232323; stroke:none;" d="M68 251L73 242C68.4568 243.435 68.1069 246.583 68 251M183 242C184.905 245.026 186.462 247.441 187 251C188.703 246.815 187.307 243.36 183 242z"/>
<path style="fill:#1f1f1f; stroke:none;" d="M13 245L13 256C14.4309 252.59 14.4309 248.41 13 245M242 245L242 256C243.431 252.59 243.431 248.41 242 245z"/>
<path style="fill:#252525; stroke:none;" d="M101 256C102.255 254.144 103.401 252.58 105 251C101.608 250.493 101.232 253.056 101 256z"/>
<path style="fill:#232323; stroke:none;" d="M151 250C152.395 252.038 153.349 253.627 154 256C155.262 252.741 154.109 251.248 151 250M69 251C69.0642 253.993 68.9461 255.346 72 256L69 251M186 251C185.489 252.952 185.267 253.457 184 255C187.054 256.151 187.03 253.191 186 251z"/>
<path style="fill:#2d2d2d; stroke:none;" d="M36 252C37.2176 254.118 37.867 254.845 40 256C39.1456 253.475 38.4917 252.97 36 252M216 256C218.133 254.845 218.782 254.118 220 252C217.508 252.97 216.854 253.475 216 256z"/>
</svg>
